<svg width="12" height="5" viewBox="0 0 12 5" fill="none" xmlns="http://www.w3.org/2000/svg">
<path d="M11.0685 0.131419L6.38373 3.97369C6.28151 4.05796 6.14353 4.10522 5.99974 4.10522C5.85596 4.10522 5.71798 4.05796 5.61576 3.97369L0.930984 0.132253C0.828133 0.0480275 0.689702 0.000833511 0.545502 0.000833511C0.401302 0.000833511 0.262871 0.0480275 0.16002 0.132253C0.109374 0.173398 0.0691242 0.222575 0.0416412 0.276885C0.0141592 0.331196 0 0.389542 0 0.448484C0 0.507426 0.0141592 0.565771 0.0416412 0.620082C0.0691242 0.674393 0.109374 0.723569 0.16002 0.764715L4.8438 4.60615C5.15231 4.85858 5.56739 5 5.99974 5C6.4321 5 6.84718 4.85858 7.15569 4.60615L11.8395 0.764715C11.8903 0.723557 11.9306 0.674328 11.9582 0.61994C11.9858 0.565553 12 0.507109 12 0.448067C12 0.389024 11.9858 0.330582 11.9582 0.276194C11.9306 0.221806 11.8903 0.172577 11.8395 0.131419C11.7366 0.047194 11.5982 0 11.454 0C11.3098 0 11.1714 0.047194 11.0685 0.131419Z" fill="#295BFF"/>
</svg>
