<svg width="24" height="24" viewBox="0 0 24 24" fill="none" xmlns="http://www.w3.org/2000/svg">
<path d="M20.9299 13.9999C20.6894 15.6662 19.8564 17.19 18.5836 18.292C17.3108 19.394 15.6835 20.0004 13.9999 19.9999H5.49994V17.9999H13.9999C15.326 17.9999 16.5978 17.4732 17.5355 16.5355C18.4732 15.5978 18.9999 14.326 18.9999 12.9999C18.9999 11.6739 18.4732 10.4021 17.5355 9.4644C16.5978 8.52672 15.326 7.99994 13.9999 7.99994H6.91394L9.41394 10.4999L7.99994 11.9139L3.08594 6.99994L7.99994 2.08594L9.41394 3.49994L6.91394 5.99994H13.9999C15.8565 5.99994 17.6369 6.73744 18.9497 8.05019C20.2624 9.36295 20.9999 11.1434 20.9999 12.9999V13.9999H20.9299Z" fill="black"/>
</svg>
