<svg width="24" height="22" viewBox="0 0 24 22" fill="none" xmlns="http://www.w3.org/2000/svg">
<path d="M0 3.14286C0 2.30932 0.316071 1.50992 0.87868 0.920522C1.44129 0.331122 2.20435 0 3 0H21C21.7956 0 22.5587 0.331122 23.1213 0.920522C23.6839 1.50992 24 2.30932 24 3.14286V18.8571C24 19.6907 23.6839 20.4901 23.1213 21.0795C22.5587 21.6689 21.7956 22 21 22H3C2.20435 22 1.44129 21.6689 0.87868 21.0795C0.316071 20.4901 0 19.6907 0 18.8571V3.14286ZM1.5 17.2857V18.8571C1.5 19.2739 1.65804 19.6736 1.93934 19.9683C2.22064 20.263 2.60218 20.4286 3 20.4286H21C21.3978 20.4286 21.7794 20.263 22.0607 19.9683C22.342 19.6736 22.5 19.2739 22.5 18.8571V13.3571L16.8345 10.2976C16.6938 10.2238 16.5346 10.1981 16.3792 10.2244C16.2239 10.2506 16.0804 10.3273 15.969 10.4437L10.404 16.2737L6.414 13.4891C6.26994 13.3887 6.09714 13.3435 5.92491 13.3612C5.75267 13.379 5.5916 13.4586 5.469 13.5866L1.5 17.2857ZM9 7.07143C9 6.44628 8.76295 5.84673 8.34099 5.40468C7.91903 4.96263 7.34674 4.71429 6.75 4.71429C6.15326 4.71429 5.58097 4.96263 5.15901 5.40468C4.73705 5.84673 4.5 6.44628 4.5 7.07143C4.5 7.69658 4.73705 8.29613 5.15901 8.73818C5.58097 9.18023 6.15326 9.42857 6.75 9.42857C7.34674 9.42857 7.91903 9.18023 8.34099 8.73818C8.76295 8.29613 9 7.69658 9 7.07143Z" fill="#4B70F5"/>
</svg>
