<svg width="20" height="20" viewBox="0 0 20 20" fill="none" xmlns="http://www.w3.org/2000/svg">
<path d="M12.5559 13.548L12.1009 14.028C12.1009 14.028 11.0179 15.167 8.06286 12.056C5.10786 8.94505 6.19086 7.80605 6.19086 7.80605L6.47786 7.50305C7.18386 6.75905 7.25086 5.56505 6.63386 4.69305L5.37386 2.91005C4.60986 1.83005 3.13486 1.68805 2.25986 2.60905L0.690856 4.26005C0.257856 4.71705 -0.032144 5.30805 0.002856 5.96505C0.092856 7.64505 0.810856 11.258 4.81486 15.475C9.06186 19.945 13.0469 20.123 14.6759 19.962C15.1919 19.912 15.6399 19.633 16.0009 19.253L17.4209 17.757C18.3809 16.747 18.1109 15.017 16.8829 14.311L14.9729 13.211C14.1669 12.748 13.1859 12.884 12.5559 13.547" fill="#8C8F9A"/>
<path d="M14.9999 10C16.0872 9.99982 17.1448 9.6452 18.0125 8.98987C18.8802 8.33455 19.5105 7.41425 19.8081 6.36843C20.1057 5.32262 20.0543 4.20831 19.6616 3.19436C19.2689 2.18041 18.5565 1.32209 17.6321 0.749489C16.7078 0.176885 15.622 -0.0787969 14.5392 0.0211906C13.4565 0.121178 12.4359 0.571385 11.6321 1.30358C10.8282 2.03578 10.285 3.01006 10.0846 4.07878C9.88429 5.14749 10.0378 6.25238 10.5219 7.22601C10.6131 7.40287 10.6369 7.60688 10.5889 7.80001L10.2909 8.91301C10.2614 9.0232 10.2614 9.13922 10.2909 9.24941C10.3205 9.3596 10.3785 9.46008 10.4591 9.54074C10.5398 9.62141 10.6403 9.67942 10.7505 9.70896C10.8607 9.7385 10.9767 9.73851 11.0869 9.70901L12.1999 9.41101C12.393 9.36294 12.597 9.38676 12.7739 9.47801C13.4656 9.8216 14.2275 10.0003 14.9999 10Z" fill="#8C8F9A"/>
</svg>
