<svg width="14" height="13" viewBox="0 0 14 13" fill="none" xmlns="http://www.w3.org/2000/svg">
<path d="M7 2L7.956 3.8515L10 4.1485L8.5 5.5L9 7.5L7 6.375L5 7.5L5.5 5.5L4 4.1485L6.1 3.8515L7 2Z" fill="#BABCC2"/>
<path d="M7.868 13L7 12.5L9 9H12C12.1314 9.0002 12.2615 8.97447 12.3829 8.92428C12.5043 8.8741 12.6146 8.80045 12.7075 8.70755C12.8004 8.61465 12.8741 8.50433 12.9243 8.38292C12.9745 8.2615 13.0002 8.13138 13 8V2C13.0002 1.86862 12.9745 1.7385 12.9243 1.61708C12.8741 1.49567 12.8004 1.38535 12.7075 1.29245C12.6146 1.19955 12.5043 1.1259 12.3829 1.07572C12.2615 1.02553 12.1314 0.999802 12 1H2C1.86862 0.999802 1.7385 1.02553 1.61708 1.07572C1.49567 1.1259 1.38535 1.19955 1.29245 1.29245C1.19955 1.38535 1.1259 1.49567 1.07572 1.61708C1.02553 1.7385 0.999802 1.86862 1 2V8C0.999802 8.13138 1.02553 8.2615 1.07572 8.38292C1.1259 8.50433 1.19955 8.61465 1.29245 8.70755C1.38535 8.80045 1.49567 8.8741 1.61708 8.92428C1.7385 8.97447 1.86862 9.0002 2 9H6.5V10H2C1.46957 10 0.960859 9.78929 0.585786 9.41421C0.210714 9.03914 0 8.53043 0 8V2C0 1.46957 0.210714 0.960859 0.585786 0.585786C0.960859 0.210714 1.46957 0 2 0H12C12.5304 0 13.0391 0.210714 13.4142 0.585786C13.7893 0.960859 14 1.46957 14 2V8C14 8.53043 13.7893 9.03914 13.4142 9.41421C13.0391 9.78929 12.5304 10 12 10H9.5825L7.868 13Z" fill="#BABCC2"/>
</svg>
