<svg width="20" height="20" viewBox="0 0 20 20" fill="none" xmlns="http://www.w3.org/2000/svg">
<path d="M16.25 6.5625H13.4375V4.375C13.4375 3.46332 13.0753 2.58898 12.4307 1.94432C11.786 1.29966 10.9117 0.9375 10 0.9375C9.08832 0.9375 8.21398 1.29966 7.56932 1.94432C6.92466 2.58898 6.5625 3.46332 6.5625 4.375V6.5625H3.75C3.50136 6.5625 3.2629 6.66127 3.08709 6.83709C2.91127 7.0129 2.8125 7.25136 2.8125 7.5V16.25C2.8125 16.4986 2.91127 16.7371 3.08709 16.9129C3.2629 17.0887 3.50136 17.1875 3.75 17.1875H16.25C16.4986 17.1875 16.7371 17.0887 16.9129 16.9129C17.0887 16.7371 17.1875 16.4986 17.1875 16.25V7.5C17.1875 7.25136 17.0887 7.0129 16.9129 6.83709C16.7371 6.66127 16.4986 6.5625 16.25 6.5625ZM7.1875 4.375C7.1875 3.62908 7.48382 2.91371 8.01126 2.38626C8.53871 1.85882 9.25408 1.5625 10 1.5625C10.7459 1.5625 11.4613 1.85882 11.9887 2.38626C12.5162 2.91371 12.8125 3.62908 12.8125 4.375V6.5625H7.1875V4.375ZM16.5625 16.25C16.5625 16.3329 16.5296 16.4124 16.471 16.471C16.4124 16.5296 16.3329 16.5625 16.25 16.5625H3.75C3.66712 16.5625 3.58763 16.5296 3.52903 16.471C3.47042 16.4124 3.4375 16.3329 3.4375 16.25V7.5C3.4375 7.41712 3.47042 7.33763 3.52903 7.27903C3.58763 7.22042 3.66712 7.1875 3.75 7.1875H16.25C16.3329 7.1875 16.4124 7.22042 16.471 7.27903C16.5296 7.33763 16.5625 7.41712 16.5625 7.5V16.25ZM10.625 11.875C10.625 11.9986 10.5883 12.1195 10.5197 12.2222C10.451 12.325 10.3534 12.4051 10.2392 12.4524C10.125 12.4997 9.99931 12.5121 9.87807 12.488C9.75683 12.4639 9.64547 12.4044 9.55806 12.3169C9.47065 12.2295 9.41112 12.1182 9.38701 11.9969C9.36289 11.8757 9.37527 11.75 9.42257 11.6358C9.46988 11.5216 9.54999 11.424 9.65277 11.3553C9.75555 11.2867 9.87639 11.25 10 11.25C10.1658 11.25 10.3247 11.3158 10.4419 11.4331C10.5592 11.5503 10.625 11.7092 10.625 11.875Z" fill="#030712"/>
</svg>
