<svg width="30" height="30" viewBox="0 0 30 30" fill="none" xmlns="http://www.w3.org/2000/svg">
<path d="M4.18363 26.9726H25.8163C28.4279 26.9726 29.7592 25.6665 29.7592 23.0801V9.93421C29.7592 7.34778 28.4279 6.05457 25.8163 6.05457H22.8784C21.8992 6.05457 21.5981 5.85368 21.0329 5.22582L20.0156 4.09546C19.4006 3.40546 18.7604 3.02832 17.4543 3.02832H12.4572C11.164 3.02832 10.5233 3.40546 9.89595 4.09546L8.87863 5.22582C8.32631 5.84082 8.01238 6.05457 7.03309 6.05457H4.18309C1.57148 6.05457 0.240234 7.34778 0.240234 9.93421V23.0801C0.240234 25.6665 1.57202 26.9726 4.18363 26.9726ZM14.9938 22.9547C11.2015 22.9547 8.15059 19.9033 8.15059 16.0869C8.15059 12.2694 11.2015 9.21903 14.9933 9.21903C18.8102 9.21903 21.8488 12.2694 21.8488 16.0869C21.8488 19.9033 18.7979 22.9547 14.9933 22.9547M24.0206 13.0226C23.1667 13.0226 22.4638 12.3326 22.4638 11.4787C22.4638 11.0658 22.6278 10.6698 22.9198 10.3779C23.2117 10.0859 23.6077 9.92189 24.0206 9.92189C24.4335 9.92189 24.8294 10.0859 25.1214 10.3779C25.4134 10.6698 25.5774 11.0658 25.5774 11.4787C25.5774 12.3326 24.8745 13.0226 24.0206 13.0226ZM14.9938 21.0465C15.6453 21.0473 16.2906 20.9196 16.8927 20.6706C17.4948 20.4216 18.0418 20.0563 18.5025 19.5956C18.9632 19.1349 19.3285 18.5879 19.5775 17.9858C19.8265 17.3837 19.9542 16.7384 19.9534 16.0869C19.9542 15.4354 19.8263 14.7902 19.5773 14.1882C19.3283 13.5861 18.963 13.0392 18.5023 12.5785C18.0416 12.1179 17.4946 11.7526 16.8926 11.5037C16.2905 11.2547 15.6453 11.127 14.9938 11.1278C12.2563 11.1278 10.047 13.3376 10.047 16.0869C10.047 18.8367 12.2692 21.0465 14.9938 21.0465Z" fill="#A3A5AE"/>
</svg>
