<svg width="50" height="50" viewBox="0 0 50 50" fill="none" xmlns="http://www.w3.org/2000/svg">
<path opacity="0.5" d="M28.3936 42.6494L27.2644 44.5577C26.2582 46.2577 23.7436 46.2577 22.7353 44.5577L21.6061 42.6494C20.7311 41.1702 20.2936 40.4285 19.5894 40.0202C18.8853 39.6098 17.9998 39.5952 16.229 39.5639C13.6123 39.5202 11.9728 39.3598 10.5978 38.7889C9.33393 38.2654 8.1856 37.4982 7.21832 36.5309C6.25103 35.5636 5.48374 34.4153 4.96025 33.1514C4.1665 31.2389 4.1665 28.8119 4.1665 23.9577V21.8744C4.1665 15.0556 4.1665 11.6452 5.70192 9.14102C6.56034 7.73934 7.73827 6.5607 9.13942 5.70143C11.6457 4.16602 15.0582 4.16602 21.8748 4.16602H28.1248C34.9436 4.16602 38.354 4.16602 40.8603 5.70143C42.2612 6.56011 43.4391 7.73802 44.2978 9.13893C45.8332 11.6452 45.8332 15.0577 45.8332 21.8744V23.9577C45.8332 28.8119 45.8332 31.2389 45.0415 33.1514C44.5178 34.4154 43.7502 35.5639 42.7825 36.5312C41.8149 37.4985 40.6661 38.2657 39.4019 38.7889C38.0269 39.3598 36.3873 39.5181 33.7707 39.5639C31.9998 39.5952 31.1144 39.6098 30.4103 40.0202C29.7061 40.4285 29.2686 41.1681 28.3936 42.6494Z" fill="#4B70F5"/>
<path d="M15.104 18.75C15.104 18.3356 15.2686 17.9382 15.5616 17.6451C15.8547 17.3521 16.2521 17.1875 16.6665 17.1875H33.3332C33.7476 17.1875 34.145 17.3521 34.438 17.6451C34.7311 17.9382 34.8957 18.3356 34.8957 18.75C34.8957 19.1644 34.7311 19.5618 34.438 19.8549C34.145 20.1479 33.7476 20.3125 33.3332 20.3125H16.6665C16.2521 20.3125 15.8547 20.1479 15.5616 19.8549C15.2686 19.5618 15.104 19.1644 15.104 18.75ZM15.104 26.0417C15.104 25.6273 15.2686 25.2298 15.5616 24.9368C15.8547 24.6438 16.2521 24.4792 16.6665 24.4792H28.1248C28.5392 24.4792 28.9367 24.6438 29.2297 24.9368C29.5227 25.2298 29.6873 25.6273 29.6873 26.0417C29.6873 26.4561 29.5227 26.8535 29.2297 27.1465C28.9367 27.4395 28.5392 27.6042 28.1248 27.6042H16.6665C16.2521 27.6042 15.8547 27.4395 15.5616 27.1465C15.2686 26.8535 15.104 26.4561 15.104 26.0417Z" fill="#4B70F5"/>
</svg>
