<svg width="40" height="40" viewBox="0 0 40 40" fill="none" xmlns="http://www.w3.org/2000/svg">
<path d="M18.4673 32.0503C19.6406 31.967 20.7984 31.7797 21.9407 31.4886C23.3462 31.9099 24.8292 32.0056 26.2773 31.7686C26.3348 31.7612 26.3927 31.7567 26.4506 31.7553C26.9673 31.7553 27.6456 32.052 28.634 32.677V31.6503C28.6342 31.4714 28.6824 31.2959 28.7736 31.142C28.8648 30.9881 28.9956 30.8614 29.1523 30.7753C29.5823 30.537 29.9823 30.2586 30.3473 29.9553C31.7873 28.7503 32.6007 27.1453 32.6007 25.4453C32.6001 24.8831 32.5107 24.3245 32.3356 23.7903C32.769 22.9903 33.1223 22.147 33.3806 21.2736C34.214 22.507 34.664 23.957 34.6673 25.4453C34.6673 27.7553 33.5773 29.912 31.6923 31.487C31.377 31.7493 31.0458 31.992 30.7007 32.2136V34.617C30.7007 35.4436 29.734 35.917 29.0523 35.427C28.4074 34.9507 27.74 34.5057 27.0523 34.0936C26.8546 33.9774 26.6491 33.8749 26.4373 33.787C25.8707 33.8714 25.294 33.9142 24.7073 33.9153C22.354 33.9153 20.179 33.2186 18.4673 32.0503ZM6.02398 27.2403C3.05065 24.757 1.33398 21.3636 1.33398 17.7336C1.33398 10.3103 8.43065 4.37695 17.0957 4.37695C25.7607 4.37695 32.859 10.3103 32.859 17.7336C32.859 25.157 25.7607 31.0886 17.0957 31.0886C16.1212 31.0886 15.1612 31.0147 14.2157 30.867C13.8073 30.962 12.1757 31.9186 9.82398 33.6136C8.97398 34.2286 7.76398 33.6353 7.76398 32.6003V28.5003C7.15472 28.1235 6.57323 27.7035 6.02398 27.2436M14.274 28.3403C14.344 28.3403 14.4162 28.3458 14.4907 28.357C15.3516 28.4997 16.2229 28.5711 17.0957 28.5703C24.4157 28.5703 30.274 23.672 30.274 17.7336C30.274 11.7953 24.4157 6.89862 17.0957 6.89862C9.77898 6.89862 3.91732 11.797 3.91732 17.7336C3.91732 20.6053 5.28565 23.3086 7.70565 25.332C8.31676 25.8408 8.98121 26.297 9.69898 26.7003C10.1007 26.9253 10.349 27.342 10.349 27.792V30.157C12.209 28.9236 13.4323 28.3403 14.2723 28.3403" fill="black"/>
<path d="M10.7083 19.9997C11.2609 19.9997 11.7908 19.7802 12.1815 19.3895C12.5722 18.9988 12.7917 18.4689 12.7917 17.9163C12.7917 17.3638 12.5722 16.8339 12.1815 16.4432C11.7908 16.0525 11.2609 15.833 10.7083 15.833C10.1558 15.833 9.6259 16.0525 9.23519 16.4432C8.84449 16.8339 8.625 17.3638 8.625 17.9163C8.625 18.4689 8.84449 18.9988 9.23519 19.3895C9.6259 19.7802 10.1558 19.9997 10.7083 19.9997ZM17.4783 19.9997C18.0309 19.9997 18.5608 19.7802 18.9515 19.3895C19.3422 18.9988 19.5617 18.4689 19.5617 17.9163C19.5617 17.3638 19.3422 16.8339 18.9515 16.4432C18.5608 16.0525 18.0309 15.833 17.4783 15.833C16.9258 15.833 16.3959 16.0525 16.0052 16.4432C15.6145 16.8339 15.395 17.3638 15.395 17.9163C15.395 18.4689 15.6145 18.9988 16.0052 19.3895C16.3959 19.7802 16.9258 19.9997 17.4783 19.9997ZM24.25 20.0013C24.8025 20.0013 25.3324 19.7818 25.7231 19.3911C26.1138 19.0004 26.3333 18.4705 26.3333 17.918C26.3333 17.3655 26.1138 16.8356 25.7231 16.4449C25.3324 16.0542 24.8025 15.8347 24.25 15.8347C23.6975 15.8347 23.1676 16.0542 22.7769 16.4449C22.3862 16.8356 22.1667 17.3655 22.1667 17.918C22.1667 18.4705 22.3862 19.0004 22.7769 19.3911C23.1676 19.7818 23.6975 20.0013 24.25 20.0013Z" fill="black"/>
</svg>
