<svg width="15" height="15" viewBox="0 0 15 15" fill="none" xmlns="http://www.w3.org/2000/svg">
<path d="M4.0625 8.4375H10.9375V7.8125H4.0625V8.4375ZM4.0625 6.5625H10.9375V5.9375H4.0625V6.5625ZM4.0625 4.6875H10.9375V4.0625H4.0625V4.6875ZM13.125 12.5481L11.2019 10.625H2.885C2.59708 10.625 2.35667 10.5288 2.16375 10.3363C1.97083 10.1438 1.87458 9.90354 1.875 9.61563V2.88438C1.875 2.59688 1.97146 2.35667 2.16438 2.16375C2.35729 1.97083 2.59729 1.87458 2.88438 1.875H12.1156C12.4031 1.875 12.6431 1.97125 12.8356 2.16375C13.0281 2.35625 13.1246 2.59646 13.125 2.88438V12.5481ZM2.885 10H11.4688L12.5 11.0275V2.885C12.5 2.78875 12.46 2.70042 12.38 2.62C12.3 2.53958 12.2119 2.49958 12.1156 2.5H2.88438C2.78854 2.5 2.70042 2.54 2.62 2.62C2.53958 2.7 2.49958 2.78813 2.5 2.88438V9.61563C2.5 9.71146 2.54 9.79958 2.62 9.88C2.7 9.96042 2.78875 10.0004 2.885 10Z" fill="#8C8F9A"/>
</svg>
