<svg width="28" height="22" viewBox="0 0 28 22" fill="none" xmlns="http://www.w3.org/2000/svg">
<path d="M26.5386 9.59382L23.8686 5.16507C23.6732 4.84348 23.3986 4.57739 23.0709 4.39225C22.7433 4.2071 22.3737 4.10909 21.9974 4.10757H19.9011V3.79632C19.9012 3.34684 19.8124 2.90177 19.6399 2.48669C19.4675 2.07161 19.2147 1.69469 18.8961 1.37757C18.2522 0.735892 17.3802 0.375432 16.4711 0.375075H3.99238C3.31321 0.370579 2.64814 0.568853 2.0823 0.944519C1.51647 1.32018 1.0756 1.85615 0.81613 2.48382C0.644453 2.89994 0.557752 3.3462 0.56113 3.79632V14.9938C0.561834 15.5197 0.753055 16.0275 1.09939 16.4233C1.44573 16.819 1.92372 17.0759 2.44488 17.1463C2.43905 17.2588 2.43905 17.3709 2.44488 17.4826C2.44044 18.0127 2.5431 18.5383 2.74673 19.0279C2.95036 19.5174 3.25074 19.9607 3.62988 20.3313C4.00192 20.7186 4.44725 21.0279 4.93996 21.2414C5.43268 21.455 5.96293 21.5684 6.49988 21.5751C7.57155 21.5654 8.59682 21.1364 9.35613 20.3801C10.1147 19.6249 10.5458 18.6017 10.5561 17.5313C10.5625 17.4281 10.5625 17.3246 10.5561 17.2213H17.4424C17.436 17.3246 17.436 17.4281 17.4424 17.5313C17.4378 18.0617 17.5404 18.5875 17.744 19.0773C17.9476 19.567 18.2481 20.0106 18.6274 20.3813C18.9997 20.7688 19.4454 21.0784 19.9386 21.2919C20.4318 21.5055 20.9625 21.6187 21.4999 21.6251C22.5716 21.6154 23.5968 21.1864 24.3561 20.4301C25.1143 19.6747 25.5449 18.6515 25.5549 17.5813C25.5613 17.4777 25.5613 17.3737 25.5549 17.2701H26.4999C26.7464 17.2665 26.982 17.1673 27.1567 16.9933C27.3314 16.8193 27.4316 16.5841 27.4361 16.3376V12.7426C27.4361 11.6301 27.1249 10.5401 26.5386 9.59382ZM8.67113 17.4813C8.6715 17.7671 8.61424 18.0499 8.50277 18.313C8.3913 18.5761 8.22791 18.8141 8.02238 19.0126C7.60652 19.4077 7.05478 19.6281 6.48113 19.6281C5.90748 19.6281 5.35574 19.4077 4.93988 19.0126C4.73718 18.8103 4.57667 18.5698 4.46766 18.305C4.35866 18.0402 4.30333 17.7564 4.30488 17.4701C4.29901 17.1744 4.35878 16.8811 4.47988 16.6113C4.64488 16.2201 4.92863 15.8901 5.28988 15.6651C5.65936 15.4209 6.09459 15.2953 6.53738 15.3051C6.95988 15.3051 7.37238 15.4301 7.72238 15.6651C8.08113 15.8938 8.36363 16.2226 8.53488 16.6113C8.65738 16.8801 8.72238 17.1738 8.72113 17.4701L8.67113 17.4813ZM12.7261 11.2613H6.48863C6.15841 11.261 5.84173 11.13 5.60776 10.897C5.37378 10.6639 5.24153 10.3478 5.23988 10.0176C5.23955 9.85377 5.27161 9.69153 5.33422 9.54016C5.39682 9.3888 5.48874 9.25131 5.60468 9.1356C5.72062 9.0199 5.85829 8.92825 6.00978 8.86595C6.16127 8.80365 6.32358 8.77192 6.48738 8.77258H12.7261C13.0564 8.77323 13.3729 8.90453 13.6066 9.1378C13.8404 9.37107 13.9723 9.68735 13.9736 10.0176C13.9738 10.1813 13.9416 10.3434 13.8789 10.4946C13.8163 10.6458 13.7243 10.7832 13.6084 10.8987C13.4925 11.0143 13.3548 11.1058 13.2034 11.1681C13.052 11.2303 12.8898 11.262 12.7261 11.2613ZM12.7261 6.98132H6.48863C6.15841 6.981 5.84173 6.85002 5.60776 6.61698C5.37378 6.38395 5.24153 6.06779 5.23988 5.73757C5.23971 5.57388 5.2719 5.41177 5.33458 5.26055C5.39726 5.10933 5.4892 4.97199 5.60512 4.85641C5.72105 4.74084 5.85867 4.64931 6.01007 4.58708C6.16148 4.52486 6.32369 4.49317 6.48738 4.49382H12.7261C13.0561 4.49448 13.3725 4.62561 13.6062 4.85861C13.8399 5.09161 13.972 5.40757 13.9736 5.73757C13.9738 5.90127 13.9416 6.06338 13.8789 6.2146C13.8163 6.36582 13.7243 6.50316 13.6084 6.61874C13.4925 6.73431 13.3548 6.82584 13.2034 6.88807C13.052 6.95029 12.8898 6.98198 12.7261 6.98132ZM23.6436 17.4813C23.6438 17.7672 23.5864 18.0501 23.4747 18.3132C23.363 18.5763 23.1994 18.8142 22.9936 19.0126C22.5778 19.4074 22.0264 19.6275 21.453 19.6275C20.8796 19.6275 20.3282 19.4074 19.9124 19.0126C19.7095 18.8104 19.5487 18.57 19.4395 18.3052C19.3303 18.0404 19.2747 17.7565 19.2761 17.4701C19.2708 17.0168 19.4159 16.5746 19.6886 16.2126C19.9961 15.8038 20.4374 15.5126 20.9361 15.3913H21.2486C21.3057 15.3777 21.3653 15.3777 21.4224 15.3913H21.6724C22.0511 15.4351 22.4124 15.5763 22.7199 15.8026C23.0286 16.0288 23.2699 16.3338 23.4186 16.6863C23.5424 16.9551 23.6061 17.2488 23.6061 17.5438L23.6436 17.4813Z" fill="#70727B"/>
</svg>
