<svg width="30" height="26" viewBox="0 0 30 26" fill="none" xmlns="http://www.w3.org/2000/svg">
<path d="M21.6327 0C18.7717 0 16.3057 1.41528 14.9606 3.75972C13.6155 1.41528 11.1495 0 8.28848 0C6.23656 0.00257289 4.26938 0.852107 2.81845 2.36226C1.36752 3.87241 0.5513 5.91988 0.548828 8.05556C0.548828 12.0264 2.95079 16.1764 7.67465 20.3875C9.85586 22.3192 12.2109 24.0275 14.7071 25.4889C14.7849 25.5327 14.8721 25.5556 14.9606 25.5556C15.0491 25.5556 15.1362 25.5327 15.2141 25.4889C17.7103 24.0275 20.0653 22.3192 22.2465 20.3875C26.9704 16.1764 29.3724 12.0264 29.3724 8.05556C29.3699 5.91988 28.5537 3.87241 27.1027 2.36226C25.6518 0.852107 23.6846 0.00257289 21.6327 0ZM14.9606 24.3639C13.0924 23.2528 1.61637 16.1208 1.61637 8.05556C1.61849 6.21445 2.32212 4.44939 3.57292 3.14753C4.82373 1.84567 6.51958 1.11332 8.28848 1.11111C11.1054 1.11111 13.4727 2.68194 14.4669 5.20972C14.5071 5.31162 14.5755 5.39877 14.6634 5.4601C14.7513 5.52144 14.8548 5.55419 14.9606 5.55419C15.0664 5.55419 15.1699 5.52144 15.2578 5.4601C15.3457 5.39877 15.4141 5.31162 15.4543 5.20972C16.4485 2.68194 18.8157 1.11111 21.6327 1.11111C23.4016 1.11332 25.0975 1.84567 26.3483 3.14753C27.5991 4.44939 28.3027 6.21445 28.3048 8.05556C28.3048 16.1111 16.8288 23.2583 14.9606 24.3639Z" fill="#8C8F9A"/>
</svg>
