<svg width="65" height="51" viewBox="0 0 65 51" fill="none" xmlns="http://www.w3.org/2000/svg">
<path opacity="0.2" fill-rule="evenodd" clip-rule="evenodd" d="M9 16C9 14.1435 9.7375 12.363 11.0503 11.0503C12.363 9.7375 14.1435 9 16 9H58C59.8565 9 61.637 9.7375 62.9497 11.0503C64.2625 12.363 65 14.1435 65 16V37.357C65 39.2135 64.2625 40.994 62.9497 42.3067C61.637 43.6195 59.8565 44.357 58 44.357H31.575C31.575 44.357 24.274 51 21.9675 51C19.6575 51 18.2715 44.357 18.2715 44.357H16C14.1435 44.357 12.363 43.6195 11.0503 42.3067C9.7375 40.994 9 39.2135 9 37.357V16Z" fill="white"/>
<path fill-rule="evenodd" clip-rule="evenodd" d="M0.25 30.357C0.25 32.6776 1.17187 34.9032 2.81282 36.5442C4.45376 38.1851 6.67936 39.107 9 39.107H9.8715C10.946 43.44 12.465 45.75 14.964 45.75C17.0745 45.75 20.2805 43.58 25.254 39.107H51C53.3206 39.107 55.5462 38.1851 57.1872 36.5442C58.8281 34.9032 59.75 32.6776 59.75 30.357V9C59.75 6.67936 58.8281 4.45376 57.1872 2.81282C55.5462 1.17187 53.3206 0.25 51 0.25H9C6.67936 0.25 4.45376 1.17187 2.81282 2.81282C1.17187 4.45376 0.25 6.67936 0.25 9V30.357ZM3.75 30.357V9C3.75 7.60761 4.30312 6.27225 5.28769 5.28769C6.27226 4.30312 7.60761 3.75 9 3.75H51C52.3924 3.75 53.7277 4.30312 54.7123 5.28769C55.6969 6.27225 56.25 7.60761 56.25 9V30.357C56.25 31.7494 55.6969 33.0847 54.7123 34.0693C53.7277 35.0539 52.3924 35.607 51 35.607H23.8995L23.399 36.062C18.919 40.143 15.86 42.25 14.964 42.25C14.642 42.25 13.739 40.6295 12.9795 37L12.689 35.607H9C7.60761 35.607 6.27226 35.0539 5.28769 34.0693C4.30312 33.0847 3.75 31.7494 3.75 30.357Z" fill="white"/>
<path d="M19.5 23C21.433 23 23 21.433 23 19.5C23 17.567 21.433 16 19.5 16C17.567 16 16 17.567 16 19.5C16 21.433 17.567 23 19.5 23Z" fill="white"/>
<path d="M30 23C31.933 23 33.5 21.433 33.5 19.5C33.5 17.567 31.933 16 30 16C28.067 16 26.5 17.567 26.5 19.5C26.5 21.433 28.067 23 30 23Z" fill="white"/>
<path d="M40.5 23C42.433 23 44 21.433 44 19.5C44 17.567 42.433 16 40.5 16C38.567 16 37 17.567 37 19.5C37 21.433 38.567 23 40.5 23Z" fill="white"/>
</svg>
