<svg width="30" height="30" viewBox="0 0 30 30" fill="none" xmlns="http://www.w3.org/2000/svg">
<path d="M20.625 5.625C23.3825 5.625 25.625 7.8675 25.625 10.625C25.625 16.4613 18.6963 21.8013 15 24.4038C11.3037 21.8013 4.375 16.4613 4.375 10.625C4.375 7.8675 6.6175 5.625 9.375 5.625C10.1779 5.62681 10.9686 5.82146 11.6806 6.19256C12.3925 6.56367 13.0049 7.10037 13.4662 7.7575L15 9.94125L16.5338 7.75875C16.9949 7.10139 17.6073 6.56444 18.3193 6.19312C19.0312 5.82179 19.822 5.62695 20.625 5.625ZM20.625 3.75C19.5209 3.74984 18.433 4.0161 17.4537 4.52619C16.4744 5.03628 15.6327 5.77512 15 6.68C14.3673 5.77512 13.5256 5.03628 12.5463 4.52619C11.567 4.0161 10.4791 3.74984 9.375 3.75C7.55164 3.75 5.80295 4.47433 4.51364 5.76364C3.22433 7.05295 2.5 8.80164 2.5 10.625C2.5 17.7737 10.625 23.6725 15 26.6875C19.375 23.6725 27.5 17.7737 27.5 10.625C27.5 9.72216 27.3222 8.82817 26.9767 7.99405C26.6312 7.15994 26.1248 6.40204 25.4864 5.76364C24.848 5.12524 24.0901 4.61883 23.2559 4.27333C22.4218 3.92783 21.5278 3.75 20.625 3.75Z" fill="#8C8F9A"/>
</svg>
