<svg width="30" height="30" viewBox="0 0 30 30" fill="none" xmlns="http://www.w3.org/2000/svg">
<g clip-path="url(#clip0_1252_55297)">
<path d="M27.4999 6.36707C26.3832 4.0754 23.1666 2.2004 19.4249 3.29207C17.6369 3.80852 16.077 4.91606 14.9999 6.43374C13.9228 4.91606 12.3628 3.80852 10.5749 3.29207C6.82489 2.21707 3.61656 4.0754 2.49989 6.36707C0.933223 9.5754 1.58322 13.1837 4.43322 17.0921C6.66656 20.1504 9.85822 23.2504 14.4916 26.8504C14.638 26.9646 14.8184 27.0266 15.0041 27.0266C15.1898 27.0266 15.3701 26.9646 15.5166 26.8504C20.1416 23.2587 23.3416 20.1837 25.5749 17.0921C28.4166 13.1837 29.0666 9.5754 27.4999 6.36707Z" fill="#70727B"/>
</g>
<defs>
<clipPath id="clip0_1252_55297">
<rect width="30" height="30" fill="white"/>
</clipPath>
</defs>
</svg>
