<svg width="18" height="18" viewBox="0 0 18 18" fill="none" xmlns="http://www.w3.org/2000/svg">
<path d="M15.6665 3C16.1085 3 16.5325 3.17559 16.845 3.48816C17.1576 3.80072 17.3332 4.22464 17.3332 4.66667V14.1108C17.3332 14.5529 17.1576 14.9768 16.845 15.2893C16.5325 15.6019 16.1085 15.7775 15.6665 15.7775H4.83317C4.39114 15.7775 3.96722 15.6019 3.65466 15.2893C3.3421 14.9768 3.1665 14.5529 3.1665 14.1108V4.66667C3.1665 4.22464 3.3421 3.80072 3.65466 3.48816C3.96722 3.17559 4.39114 3 4.83317 3H15.6665ZM8.7765 9.62L4.9465 13.45L4.8915 13.5L4.83317 13.545V14.1117H15.6665V13.545L15.6082 13.5008L15.5532 13.4508L13.6865 11.5842L13.3923 11.8792L13.4382 11.925C13.5876 12.075 13.6744 12.2762 13.6809 12.4878C13.6873 12.6994 13.613 12.9056 13.473 13.0644C13.3329 13.2232 13.1377 13.3228 12.9269 13.3428C12.7162 13.3629 12.5057 13.302 12.3382 13.1725L12.2598 13.1033L8.7765 9.62ZM13.1665 0.5C13.587 0.499867 13.992 0.658672 14.3003 0.944581C14.6086 1.23049 14.7975 1.62237 14.829 2.04167L14.8332 2.16667H3.1665C2.96239 2.16669 2.76539 2.24163 2.61286 2.37726C2.46033 2.5129 2.36288 2.69979 2.339 2.9025L2.33317 3V13C1.91269 13.0001 1.5077 12.8413 1.19938 12.5554C0.891063 12.2695 0.702207 11.8776 0.670671 11.4583L0.666504 11.3333V3C0.666468 2.36232 0.910108 1.74874 1.34757 1.28478C1.78504 0.820828 2.38326 0.541577 3.01984 0.504167L3.1665 0.5H13.1665ZM15.6665 4.66667H4.83317V11.2067L8.03984 8C8.13657 7.90324 8.25141 7.82649 8.37781 7.77412C8.50421 7.72176 8.63969 7.69481 8.7765 7.69481C8.91332 7.69481 9.0488 7.72176 9.1752 7.77412C9.30159 7.82649 9.41644 7.90324 9.51317 8L12.214 10.7L12.9507 9.96417C13.0474 9.86741 13.1622 9.79066 13.2886 9.73829C13.415 9.68592 13.5505 9.65897 13.6873 9.65897C13.8242 9.65897 13.9596 9.68592 14.086 9.73829C14.2124 9.79066 14.3273 9.86741 14.424 9.96417L15.6665 11.2067V4.66667ZM12.7498 5.91667C12.914 5.91667 13.0765 5.949 13.2282 6.01182C13.3798 6.07464 13.5176 6.16671 13.6337 6.28278C13.7498 6.39886 13.8419 6.53666 13.9047 6.68831C13.9675 6.83997 13.9998 7.00251 13.9998 7.16667C13.9998 7.33082 13.9675 7.49336 13.9047 7.64502C13.8419 7.79668 13.7498 7.93448 13.6337 8.05055C13.5176 8.16662 13.3798 8.2587 13.2282 8.32152C13.0765 8.38433 12.914 8.41667 12.7498 8.41667C12.4183 8.41667 12.1004 8.28497 11.866 8.05055C11.6315 7.81613 11.4998 7.49819 11.4998 7.16667C11.4998 6.83515 11.6315 6.5172 11.866 6.28278C12.1004 6.04836 12.4183 5.91667 12.7498 5.91667Z" fill="#030712"/>
</svg>
