<svg width="30" height="30" viewBox="0 0 30 30" fill="none" xmlns="http://www.w3.org/2000/svg">
<path d="M15 20V13.75H14.375M14.375 20H15.625M15 10.625V10" stroke="#4B70F5" stroke-width="1.875" stroke-linecap="round" stroke-linejoin="round"/>
<path d="M3.75 11.75C3.75 8.95 3.75 7.55 4.295 6.48C4.77436 5.53923 5.53923 4.77436 6.48 4.295C7.55 3.75 8.95 3.75 11.75 3.75H18.25C21.05 3.75 22.45 3.75 23.52 4.295C24.4608 4.77436 25.2256 5.53923 25.705 6.48C26.25 7.55 26.25 8.95 26.25 11.75V18.25C26.25 21.05 26.25 22.45 25.705 23.52C25.2256 24.4608 24.4608 25.2256 23.52 25.705C22.45 26.25 21.05 26.25 18.25 26.25H11.75C8.95 26.25 7.55 26.25 6.48 25.705C5.53923 25.2256 4.77436 24.4608 4.295 23.52C3.75 22.45 3.75 21.05 3.75 18.25V11.75Z" stroke="#4B70F5" stroke-width="1.875" stroke-linecap="round" stroke-linejoin="round"/>
</svg>
