<svg width="30" height="30" viewBox="0 0 30 30" fill="none" xmlns="http://www.w3.org/2000/svg">
<path d="M14.9998 22.5L9.29041 14.4375C8.3559 13.3341 7.75408 11.988 7.55506 10.5558C7.35604 9.12359 7.568 7.66433 8.16626 6.34796C8.76453 5.03158 9.72447 3.91227 10.9343 3.12037C12.1441 2.32847 13.554 1.89658 14.9998 1.875C17.0039 1.8948 18.9185 2.70806 20.3243 4.13664C21.73 5.56522 22.5123 7.49268 22.4998 9.49688C22.5006 11.2453 21.9053 12.9417 20.8123 14.3063L14.9998 22.5ZM14.9998 3.75C13.4922 3.76731 12.053 4.38223 10.9984 5.45972C9.94372 6.53722 9.35979 7.98921 9.37479 9.49688C9.38188 10.8728 9.87686 12.2016 10.7717 13.2469L14.9998 19.2375L19.3404 13.125C20.1655 12.0951 20.6181 10.8165 20.6248 9.49688C20.6398 7.98921 20.0559 6.53722 19.0012 5.45972C17.9466 4.38223 16.5074 3.76731 14.9998 3.75Z" fill="#4B70F5"/>
<path d="M15 10.3125C16.0355 10.3125 16.875 9.47303 16.875 8.4375C16.875 7.40197 16.0355 6.5625 15 6.5625C13.9645 6.5625 13.125 7.40197 13.125 8.4375C13.125 9.47303 13.9645 10.3125 15 10.3125Z" fill="#4B70F5"/>
<path d="M26.25 11.25H24.375V13.125H26.25V26.25H3.75V13.125H5.625V11.25H3.75C3.25272 11.25 2.77581 11.4475 2.42417 11.7992C2.07254 12.1508 1.875 12.6277 1.875 13.125V26.25C1.875 26.7473 2.07254 27.2242 2.42417 27.5758C2.77581 27.9275 3.25272 28.125 3.75 28.125H26.25C26.7473 28.125 27.2242 27.9275 27.5758 27.5758C27.9275 27.2242 28.125 26.7473 28.125 26.25V13.125C28.125 12.6277 27.9275 12.1508 27.5758 11.7992C27.2242 11.4475 26.7473 11.25 26.25 11.25Z" fill="#4B70F5"/>
</svg>
