<svg width="30" height="30" viewBox="0 0 30 30" fill="none" xmlns="http://www.w3.org/2000/svg">
<path opacity="0.5" d="M22.4591 8.19733L20.1716 5.90983C18.2391 3.97858 17.2741 3.01233 16.0203 2.65358C14.7666 2.29358 13.4353 2.60108 10.7741 3.21608L9.23906 3.56983C6.99906 4.08608 5.87906 4.34483 5.11156 5.11108C4.34406 5.87733 4.08781 6.99983 3.57031 9.23858L3.21531 10.7736C2.60156 13.4361 2.29406 14.7661 2.65281 16.0198C3.01281 17.2736 3.97906 18.2386 5.91031 20.1698L8.19781 22.4573C11.5603 25.8211 13.2403 27.4998 15.3278 27.4998C17.4166 27.4998 19.0966 25.8198 22.4578 22.4586C25.8203 19.0961 27.5003 17.4161 27.5003 15.3273C27.5003 13.2398 25.8203 11.5586 22.4591 8.19733Z" fill="#4B70F5"/>
<path d="M13.9333 17.9103C13.0921 17.0703 13.0996 15.8628 13.6021 14.9066C13.4774 14.7264 13.4197 14.5083 13.4391 14.2901C13.4584 14.0719 13.5536 13.8673 13.7081 13.7119C13.8625 13.5566 14.0666 13.4602 14.2847 13.4396C14.5028 13.419 14.7212 13.4754 14.9021 13.5991C15.3271 13.3741 15.7933 13.2541 16.2583 13.2591C16.507 13.2614 16.7445 13.3624 16.9187 13.5399C17.0929 13.7173 17.1894 13.9567 17.1871 14.2053C17.1848 14.454 17.0838 14.6915 16.9063 14.8657C16.7289 15.0399 16.4895 15.1364 16.2408 15.1341C15.9514 15.1448 15.6779 15.2692 15.4796 15.4803C14.9958 15.9641 15.1233 16.4491 15.2583 16.5853C15.3958 16.7216 15.8796 16.8478 16.3633 16.3641C17.3433 15.3841 19.0358 15.0591 20.1208 16.1428C20.9621 16.9841 20.9546 18.1916 20.4508 19.1478C20.5748 19.328 20.6318 19.5458 20.6121 19.7636C20.5924 19.9814 20.4972 20.1854 20.3429 20.3404C20.1887 20.4954 19.9851 20.5916 19.7674 20.6124C19.5497 20.6331 19.3316 20.5771 19.1508 20.4541C18.5899 20.7618 17.9392 20.8644 17.3108 20.7441C17.1902 20.7193 17.0756 20.671 16.9736 20.6019C16.8716 20.5328 16.7843 20.4444 16.7165 20.3415C16.6487 20.2387 16.6018 20.1235 16.5785 20.0025C16.5553 19.8816 16.5561 19.7572 16.5808 19.6366C16.6056 19.5159 16.6539 19.4013 16.723 19.2994C16.7921 19.1974 16.8806 19.11 16.9834 19.0422C17.0862 18.9744 17.2014 18.9276 17.3224 18.9043C17.4433 18.881 17.5677 18.8818 17.6883 18.9066C17.9096 18.9528 18.2671 18.8803 18.5733 18.5741C19.0583 18.0891 18.9308 17.6053 18.7946 17.4691C18.6583 17.3328 18.1746 17.2066 17.6896 17.6903C16.7096 18.6703 15.0171 18.9953 13.9333 17.9103ZM12.5258 12.8666C12.7646 12.636 12.9551 12.3601 13.0861 12.0551C13.2171 11.7501 13.2861 11.422 13.289 11.0901C13.2919 10.7581 13.2286 10.4289 13.1029 10.1217C12.9772 9.81445 12.7916 9.53532 12.5568 9.30059C12.3221 9.06586 12.043 8.88023 11.7357 8.75453C11.4285 8.62882 11.0993 8.56557 10.7673 8.56845C10.4354 8.57134 10.1073 8.6403 9.80233 8.77133C9.49732 8.90235 9.22146 9.0928 8.99084 9.33158C8.53545 9.80309 8.28346 10.4346 8.28916 11.0901C8.29485 11.7456 8.55778 12.3726 9.0213 12.8361C9.48482 13.2996 10.1118 13.5626 10.7673 13.5683C11.4228 13.574 12.0543 13.322 12.5258 12.8666Z" fill="#4B70F5"/>
</svg>
