<svg width="18" height="8" viewBox="0 0 18 8" fill="none" xmlns="http://www.w3.org/2000/svg">
<path d="M16.6028 0.197128L9.57559 5.96054C9.42226 6.08694 9.21529 6.15784 8.99962 6.15784C8.78394 6.15784 8.57697 6.08694 8.42364 5.96054L1.39647 0.198379C1.2422 0.0720415 1.03455 0.00125027 0.818253 0.00125027C0.601954 0.00125027 0.394306 0.0720415 0.24003 0.198379C0.164061 0.260096 0.103685 0.333862 0.0624619 0.415328C0.0212383 0.496794 0 0.584313 0 0.672726C0 0.761138 0.0212383 0.848657 0.0624619 0.930123C0.103685 1.01159 0.164061 1.08535 0.24003 1.14707L7.2657 6.90923C7.72846 7.28786 8.35108 7.5 8.99962 7.5C9.64815 7.5 10.2708 7.28786 10.7335 6.90923L17.7592 1.14707C17.8354 1.08533 17.896 1.01149 17.9373 0.929911C17.9787 0.848329 18 0.760664 18 0.6721C18 0.583537 17.9787 0.495872 17.9373 0.414291C17.896 0.332709 17.8354 0.258865 17.7592 0.197128C17.6049 0.0707912 17.3973 0 17.181 0C16.9647 0 16.757 0.0707912 16.6028 0.197128Z" fill="#295BFF"/>
</svg>
