<svg width="24" height="24" viewBox="0 0 24 24" fill="none" xmlns="http://www.w3.org/2000/svg">
<g clip-path="url(#clip0_140_68523)">
<path fill-rule="evenodd" clip-rule="evenodd" d="M17.94 2.43374L18.13 2.55074L20.11 3.87074C20.3604 4.03786 20.5699 4.25937 20.7228 4.51875C20.8757 4.77813 20.9681 5.06868 20.993 5.36874L21 5.53474V18.0737C21 18.5508 20.8294 19.0121 20.5192 19.3744C20.2089 19.7368 19.7793 19.9763 19.308 20.0497L19.153 20.0677L7.624 20.9547C7.31712 20.9783 7.00894 20.9308 6.72344 20.8158C6.43795 20.7008 6.18285 20.5215 5.978 20.2917L5.871 20.1607L3.6 17.1327C3.25486 16.6724 3.04936 16.1226 3.008 15.5487L3 15.3327V4.92574C3.00003 4.44871 3.17057 3.9874 3.48084 3.62506C3.7911 3.26271 4.22066 3.0232 4.692 2.94974L4.847 2.93174L16.235 2.05574C16.8279 2.01007 17.421 2.14164 17.939 2.43374H17.94ZM19 7.07974L8 7.92574V18.9197L19 18.0737V7.07974ZM16 8.49974C16.2652 8.49974 16.5196 8.60509 16.7071 8.79263C16.8946 8.98017 17 9.23452 17 9.49974V16.4997C17 16.765 16.8946 17.0193 16.7071 17.2068C16.5196 17.3944 16.2652 17.4997 16 17.4997H15.5C15.3292 17.4998 15.1611 17.4561 15.012 17.3727C14.8628 17.2894 14.7375 17.1693 14.648 17.0237L12 12.7197V16.9997C12 17.265 11.8946 17.5193 11.7071 17.7068C11.5196 17.8944 11.2652 17.9997 11 17.9997C10.7348 17.9997 10.4804 17.8944 10.2929 17.7068C10.1054 17.5193 10 17.265 10 16.9997V9.99974C10 9.73452 10.1054 9.48017 10.2929 9.29263C10.4804 9.10509 10.7348 8.99974 11 8.99974H11.5C11.6708 8.99969 11.8389 9.04341 11.988 9.12674C12.1372 9.21007 12.2625 9.33022 12.352 9.47574L15 13.7787V9.49974C15 9.23452 15.1054 8.98017 15.2929 8.79263C15.4804 8.60509 15.7348 8.49974 16 8.49974ZM16.388 4.04974L6.245 4.82974L7.382 5.96674L18.38 5.12174L17.02 4.21474C16.8337 4.09055 16.6112 4.03245 16.388 4.04974Z" fill="black"/>
</g>
<defs>
<clipPath id="clip0_140_68523">
<rect width="24" height="24" fill="white"/>
</clipPath>
</defs>
</svg>
