<svg width="30" height="30" viewBox="0 0 30 30" fill="none" xmlns="http://www.w3.org/2000/svg">
<path fill-rule="evenodd" clip-rule="evenodd" d="M9.73003 1.69484C9.28542 1.61641 8.82971 1.62634 8.38894 1.72405C7.94816 1.82175 7.53095 2.00533 7.16113 2.2643C6.79131 2.52327 6.47613 2.85255 6.23358 3.23334C5.99103 3.61413 5.82587 4.03897 5.74753 4.48359L2.71003 21.7173C2.55161 22.6151 2.75629 23.539 3.27904 24.2859C3.80179 25.0327 4.59979 25.5413 5.49753 25.6998L20.27 28.3048C21.1676 28.4629 22.0912 28.258 22.8378 27.7353C23.5843 27.2126 24.0928 26.4148 24.2513 25.5173L27.2913 8.28234C27.3697 7.83773 27.3598 7.38203 27.2621 6.94125C27.1644 6.50047 26.9808 6.08326 26.7218 5.71344C26.4629 5.34362 26.1336 5.02844 25.7528 4.78589C25.372 4.54334 24.9472 4.37818 24.5025 4.29984L9.73003 1.69484ZM11.325 7.05359C11.2027 7.02957 11.0768 7.03018 10.9547 7.0554C10.8326 7.08062 10.7168 7.12994 10.614 7.20046C10.5112 7.27099 10.4235 7.36131 10.356 7.46614C10.2886 7.57097 10.2427 7.68821 10.2211 7.81099C10.1994 7.93377 10.2025 8.05962 10.2302 8.18119C10.2578 8.30276 10.3094 8.4176 10.3819 8.51899C10.4544 8.62039 10.5465 8.70629 10.6526 8.77169C10.7587 8.83708 10.8769 8.88065 11 8.89984L20.8475 10.6373C21.0925 10.6804 21.3446 10.6244 21.5483 10.4817C21.752 10.3389 21.8907 10.1211 21.9338 9.87609C21.9769 9.6311 21.9209 9.37902 21.7781 9.17531C21.6354 8.9716 21.4175 8.83294 21.1725 8.78984L11.325 7.05359ZM9.37128 12.7386C9.41456 12.4938 9.55332 12.2762 9.75702 12.1336C9.96073 11.9911 10.2127 11.9353 10.4575 11.9786L20.305 13.7148C20.4282 13.734 20.5463 13.7776 20.6525 13.843C20.7586 13.9084 20.8506 13.9943 20.9232 14.0957C20.9957 14.1971 21.0473 14.3119 21.0749 14.4335C21.1025 14.5551 21.1056 14.6809 21.084 14.8037C21.0624 14.9265 21.0165 15.0437 20.949 15.1485C20.8816 15.2534 20.7939 15.3437 20.6911 15.4142C20.5883 15.4847 20.4724 15.5341 20.3503 15.5593C20.2283 15.5845 20.1024 15.5851 19.98 15.5611L10.1313 13.8236C9.88672 13.7803 9.66933 13.6417 9.52684 13.4383C9.38435 13.2349 9.3284 12.9832 9.37128 12.7386ZM9.58878 16.9011C9.46645 16.8771 9.34056 16.8777 9.21847 16.9029C9.09638 16.9281 8.98055 16.9774 8.87775 17.048C8.77495 17.1185 8.68725 17.2088 8.61978 17.3136C8.55231 17.4185 8.50642 17.5357 8.48481 17.6585C8.4632 17.7813 8.46629 17.9071 8.49391 18.0287C8.52152 18.1503 8.57311 18.2651 8.64564 18.3665C8.71818 18.4679 8.81021 18.5538 8.91635 18.6192C9.02249 18.6846 9.1406 18.7281 9.26378 18.7473L15.4188 19.8336C15.6638 19.8767 15.9159 19.8207 16.1196 19.6779C16.3233 19.5352 16.4619 19.3173 16.505 19.0723C16.5481 18.8273 16.4921 18.5753 16.3494 18.3716C16.2066 18.1678 15.9888 18.0292 15.7438 17.9861L9.58878 16.9011Z" fill="#70727B"/>
</svg>
