<svg width="30" height="30" viewBox="0 0 30 30" fill="none" xmlns="http://www.w3.org/2000/svg">
<g clip-path="url(#clip0_1252_55312)">
<path d="M7.5 8.75C7.5 7.0924 8.15848 5.50269 9.33058 4.33058C10.5027 3.15848 12.0924 2.5 13.75 2.5C15.4076 2.5 16.9973 3.15848 18.1694 4.33058C19.3415 5.50269 20 7.0924 20 8.75C20 10.4076 19.3415 11.9973 18.1694 13.1694C16.9973 14.3415 15.4076 15 13.75 15C12.0924 15 10.5027 14.3415 9.33058 13.1694C8.15848 11.9973 7.5 10.4076 7.5 8.75ZM6.0275 18.34C8.03125 17.1175 10.7563 16.25 13.75 16.25C14.3092 16.25 14.8575 16.2792 15.395 16.3375C15.6097 16.3605 15.8148 16.4388 15.9903 16.5647C16.1657 16.6905 16.3056 16.8597 16.3962 17.0557C16.4869 17.2517 16.5252 17.4679 16.5075 17.6831C16.4897 17.8983 16.4165 18.1052 16.295 18.2837C15.4484 19.5266 14.997 20.9962 15 22.5C15 23.65 15.2587 24.7375 15.7187 25.7087C15.8084 25.898 15.849 26.1067 15.837 26.3157C15.825 26.5247 15.7607 26.7273 15.6499 26.905C15.5392 27.0827 15.3856 27.2297 15.2032 27.3326C15.0209 27.4355 14.8156 27.4909 14.6063 27.4938L13.75 27.5C10.9637 27.5 8.33125 27.325 6.35875 26.8025C5.3775 26.5425 4.45375 26.17 3.75375 25.6075C3.0125 25.0125 2.5 24.1813 2.5 23.125C2.5 22.1412 2.9475 21.2213 3.555 20.4513C4.1725 19.67 5.02625 18.9512 6.0275 18.3387V18.34ZM21.25 26.25C21.25 25.9438 21.3624 25.6483 21.5659 25.4195C21.7693 25.1907 22.0497 25.0446 22.3537 25.0087L22.5025 25C22.8211 25.0004 23.1275 25.1223 23.3592 25.3411C23.5909 25.5598 23.7303 25.8587 23.749 26.1767C23.7676 26.4948 23.6642 26.808 23.4597 27.0523C23.2552 27.2966 22.9651 27.4536 22.6487 27.4913L22.5 27.5C22.1685 27.5 21.8505 27.3683 21.6161 27.1339C21.3817 26.8995 21.25 26.5815 21.25 26.25ZM21.9587 20.3125C22.0275 20.1934 22.1337 20.1002 22.2608 20.0476C22.3879 19.9949 22.5289 19.9857 22.6618 20.0213C22.7947 20.0569 22.9121 20.1354 22.9958 20.2445C23.0796 20.3537 23.125 20.4874 23.125 20.625C23.125 20.7938 23.065 20.9437 22.7238 21.225L22.5425 21.3675L22.405 21.47C22.3125 21.5388 22.2025 21.62 22.1012 21.7025L21.9275 21.8475C21.6536 22.0815 21.4437 22.3813 21.3175 22.7187C21.2152 23.0175 21.2298 23.3438 21.3582 23.6323C21.4867 23.9207 21.7196 24.1498 22.01 24.2736C22.3005 24.3974 22.6271 24.4067 22.9241 24.2996C23.2211 24.1925 23.4666 23.9769 23.6112 23.6963L23.7325 23.6L24.1788 23.2625L24.3125 23.155L24.5388 22.9575C25.0463 22.49 25.625 21.7475 25.625 20.625C25.6255 19.9376 25.3992 19.2691 24.9814 18.7233C24.5635 18.1774 23.9773 17.7846 23.3135 17.6056C22.6498 17.4267 21.9456 17.4715 21.3099 17.7333C20.6743 17.9951 20.1427 18.4592 19.7975 19.0538C19.6306 19.3403 19.5843 19.6815 19.669 20.0022C19.7536 20.3229 19.9621 20.5968 20.2487 20.7638C20.5353 20.9307 20.8765 20.9769 21.1972 20.8923C21.5179 20.8077 21.7918 20.5991 21.9587 20.3125Z" fill="#70727B"/>
</g>
<defs>
<clipPath id="clip0_1252_55312">
<rect width="30" height="30" fill="white"/>
</clipPath>
</defs>
</svg>
