<svg width="16" height="16" viewBox="0 0 16 16" fill="none" xmlns="http://www.w3.org/2000/svg">
<path d="M11.271 11.9785L15.143 15.8515C15.1894 15.8981 15.2446 15.935 15.3054 15.9602C15.3661 15.9854 15.4312 15.9984 15.497 15.9984C15.5628 15.9984 15.6279 15.9854 15.6886 15.9602C15.7494 15.935 15.8046 15.8981 15.851 15.8515C15.8976 15.8051 15.9345 15.7499 15.9597 15.6891C15.9849 15.6284 15.9979 15.5633 15.9979 15.4975C15.9979 15.4317 15.9849 15.3666 15.9597 15.3059C15.9345 15.2451 15.8976 15.1899 15.851 15.1435L12.286 11.5795C14.666 8.8325 14.553 4.6565 11.944 2.0475C9.214 -0.6825 4.774 -0.6825 2.046 2.0475C-0.682 4.7775 -0.682 9.2175 2.046 11.9475C2.69462 12.5992 3.46593 13.1158 4.31538 13.4677C5.16482 13.8196 6.07557 13.9996 6.995 13.9975C7.12761 13.9975 7.25479 13.9448 7.34855 13.8511C7.44232 13.7573 7.495 13.6301 7.495 13.4975C7.495 13.3649 7.44232 13.2377 7.34855 13.1439C7.25479 13.0502 7.12761 12.9975 6.995 12.9975C6.20688 12.9997 5.42615 12.8455 4.69802 12.5439C3.96988 12.2423 3.30878 11.7993 2.753 11.2405C1.63001 10.114 0.999413 8.58817 0.999413 6.9975C0.999413 5.40684 1.63001 3.88104 2.753 2.7545C3.87869 1.63065 5.40434 0.999435 6.995 0.999435C8.58566 0.999435 10.1113 1.63065 11.237 2.7545C12.36 3.88104 12.9906 5.40684 12.9906 6.9975C12.9906 8.58817 12.36 10.114 11.237 11.2405C11.1878 11.2897 11.1495 11.3485 11.1244 11.4134C11.0993 11.4782 11.0879 11.5476 11.0911 11.617C11.0943 11.6865 11.112 11.7545 11.143 11.8167C11.1739 11.879 11.2175 11.9341 11.271 11.9785Z" fill="black"/>
</svg>
