<svg width="15" height="17" viewBox="0 0 15 17" fill="none" xmlns="http://www.w3.org/2000/svg">
<path d="M13.4375 5.625H10.625V3.4375C10.625 2.52582 10.2628 1.65148 9.61818 1.00682C8.97352 0.362164 8.09918 0 7.1875 0C6.27582 0 5.40148 0.362164 4.75682 1.00682C4.11216 1.65148 3.75 2.52582 3.75 3.4375V5.625H0.9375C0.68886 5.625 0.450403 5.72377 0.274587 5.89959C0.0987719 6.0754 0 6.31386 0 6.5625V15.3125C0 15.5611 0.0987719 15.7996 0.274587 15.9754C0.450403 16.1512 0.68886 16.25 0.9375 16.25H13.4375C13.6861 16.25 13.9246 16.1512 14.1004 15.9754C14.2762 15.7996 14.375 15.5611 14.375 15.3125V6.5625C14.375 6.31386 14.2762 6.0754 14.1004 5.89959C13.9246 5.72377 13.6861 5.625 13.4375 5.625ZM4.375 3.4375C4.375 2.69158 4.67132 1.97621 5.19876 1.44876C5.72621 0.921316 6.44158 0.625 7.1875 0.625C7.93342 0.625 8.64879 0.921316 9.17624 1.44876C9.70368 1.97621 10 2.69158 10 3.4375V5.625H4.375V3.4375ZM13.75 15.3125C13.75 15.3954 13.7171 15.4749 13.6585 15.5335C13.5999 15.5921 13.5204 15.625 13.4375 15.625H0.9375C0.85462 15.625 0.775134 15.5921 0.716529 15.5335C0.657924 15.4749 0.625 15.3954 0.625 15.3125V6.5625C0.625 6.47962 0.657924 6.40013 0.716529 6.34153C0.775134 6.28292 0.85462 6.25 0.9375 6.25H13.4375C13.5204 6.25 13.5999 6.28292 13.6585 6.34153C13.7171 6.40013 13.75 6.47962 13.75 6.5625V15.3125ZM7.8125 10.9375C7.8125 11.0611 7.77585 11.182 7.70717 11.2847C7.63849 11.3875 7.54088 11.4676 7.42668 11.5149C7.31247 11.5622 7.18681 11.5746 7.06557 11.5505C6.94433 11.5264 6.83297 11.4669 6.74556 11.3794C6.65815 11.292 6.59862 11.1807 6.57451 11.0594C6.55039 10.9382 6.56277 10.8125 6.61007 10.6983C6.65738 10.5841 6.73749 10.4865 6.84027 10.4178C6.94305 10.3492 7.06389 10.3125 7.1875 10.3125C7.35326 10.3125 7.51223 10.3783 7.62944 10.4956C7.74665 10.6128 7.8125 10.7717 7.8125 10.9375Z" fill="#030712"/>
</svg>
