<svg width="12" height="7" viewBox="0 0 12 7" fill="none" xmlns="http://www.w3.org/2000/svg">
<path d="M11.0685 1.01868L6.38346 5.62968C6.28124 5.73081 6.14325 5.78753 5.99946 5.78753C5.85567 5.78753 5.71768 5.73081 5.61546 5.62968L0.930459 1.01968C0.827603 0.918607 0.689166 0.861971 0.544959 0.861971C0.400752 0.861971 0.262315 0.918607 0.159459 1.01968C0.10881 1.06906 0.0685587 1.12808 0.0410748 1.19325C0.0135908 1.25843 -0.00056839 1.32845 -0.00056839 1.39918C-0.00056839 1.46992 0.0135908 1.53994 0.0410748 1.60511C0.0685587 1.67029 0.10881 1.72931 0.159459 1.77868L4.84346 6.38868C5.15198 6.69161 5.56708 6.86133 5.99946 6.86133C6.43184 6.86133 6.84694 6.69161 7.15546 6.38868L11.8395 1.77868C11.8903 1.72929 11.9306 1.67021 11.9582 1.60494C11.9858 1.53967 12 1.46954 12 1.39868C12 1.32783 11.9858 1.25769 11.9582 1.19242C11.9306 1.12715 11.8903 1.06808 11.8395 1.01868C11.7366 0.917607 11.5982 0.86097 11.454 0.86097C11.3098 0.86097 11.1713 0.917607 11.0685 1.01868Z" fill="#54565C"/>
</svg>
