<svg width="15" height="14" viewBox="0 0 15 14" fill="none" xmlns="http://www.w3.org/2000/svg">
<path d="M7.5 13.838C6.61972 13.838 5.79531 13.6709 5.02676 13.3366C4.25822 13.0023 3.5892 12.5505 3.01972 11.981C2.45023 11.4115 1.99836 10.7425 1.66408 9.97394C1.32981 9.2054 1.16244 8.38075 1.16197 7.5C1.1615 6.61925 1.32887 5.79484 1.66408 5.02676C1.9993 4.25869 2.45094 3.58967 3.01901 3.01972C3.58709 2.44977 4.2561 1.99789 5.02606 1.66408C5.79601 1.33028 6.62066 1.16291 7.5 1.16197C8.37934 1.16103 9.20399 1.3284 9.97394 1.66408C10.7439 1.99977 11.4129 2.45164 11.981 3.01972C12.5491 3.58779 13.0009 4.25681 13.3366 5.02676C13.6723 5.79671 13.8394 6.62113 13.838 7.5C13.8366 8.37887 13.6695 9.20352 13.3366 9.97394C13.0038 10.7444 12.5519 11.4134 11.981 11.981C11.4101 12.5486 10.7411 13.0005 9.97394 13.3366C9.20681 13.6728 8.38216 13.8399 7.5 13.838ZM9.47183 10.4577L10.4577 9.47183L8.20423 7.21831V3.97887H6.79577V7.78169L9.47183 10.4577ZM2.99296 0L3.97887 0.985916L0.985915 3.97887L0 2.99296L2.99296 0ZM12.007 0L15 2.99296L14.0141 3.97887L11.0211 0.985916L12.007 0ZM7.5 12.4296C8.87324 12.4296 10.0383 11.9514 10.9951 10.9951C11.9519 10.0387 12.43 8.87371 12.4296 7.5C12.4291 6.12629 11.9509 4.9615 10.9951 4.00563C10.0392 3.04977 8.87418 2.57136 7.5 2.57042C6.12582 2.56948 4.96103 3.04789 4.00563 4.00563C3.05023 4.96338 2.57183 6.12817 2.57042 7.5C2.56901 8.87183 3.04742 10.0369 4.00563 10.9951C4.96385 11.9533 6.12864 12.4315 7.5 12.4296Z" fill="black"/>
</svg>
