<svg width="65" height="51" viewBox="0 0 65 51" fill="none" xmlns="http://www.w3.org/2000/svg">
<path opacity="0.2" fill-rule="evenodd" clip-rule="evenodd" d="M8.75 15.75C8.75 13.8935 9.4875 12.113 10.8003 10.8003C12.113 9.4875 13.8935 8.75 15.75 8.75H57.75C59.6065 8.75 61.387 9.4875 62.6997 10.8003C64.0125 12.113 64.75 13.8935 64.75 15.75V37.107C64.75 38.9635 64.0125 40.744 62.6997 42.0567C61.387 43.3695 59.6065 44.107 57.75 44.107H31.325C31.325 44.107 24.024 50.75 21.7175 50.75C19.4075 50.75 18.0215 44.107 18.0215 44.107H15.75C13.8935 44.107 12.113 43.3695 10.8003 42.0567C9.4875 40.744 8.75 38.9635 8.75 37.107V15.75Z" fill="#C0C1C7"/>
<path fill-rule="evenodd" clip-rule="evenodd" d="M0 30.107C0 32.4276 0.921872 34.6532 2.56282 36.2942C4.20376 37.9351 6.42936 38.857 8.75 38.857H9.6215C10.696 43.19 12.215 45.5 14.714 45.5C16.8245 45.5 20.0305 43.33 25.004 38.857H50.75C53.0706 38.857 55.2962 37.9351 56.9372 36.2942C58.5781 34.6532 59.5 32.4276 59.5 30.107V8.75C59.5 6.42936 58.5781 4.20376 56.9372 2.56282C55.2962 0.921872 53.0706 0 50.75 0H8.75C6.42936 0 4.20376 0.921872 2.56282 2.56282C0.921872 4.20376 0 6.42936 0 8.75V30.107ZM3.5 30.107V8.75C3.5 7.35761 4.05312 6.02225 5.03769 5.03769C6.02226 4.05312 7.35761 3.5 8.75 3.5H50.75C52.1424 3.5 53.4777 4.05312 54.4623 5.03769C55.4469 6.02225 56 7.35761 56 8.75V30.107C56 31.4994 55.4469 32.8347 54.4623 33.8193C53.4777 34.8039 52.1424 35.357 50.75 35.357H23.6495L23.149 35.812C18.669 39.893 15.61 42 14.714 42C14.392 42 13.489 40.3795 12.7295 36.75L12.439 35.357H8.75C7.35761 35.357 6.02226 34.8039 5.03769 33.8193C4.05312 32.8347 3.5 31.4994 3.5 30.107Z" fill="#C0C1C7"/>
<path d="M19.25 22.75C21.183 22.75 22.75 21.183 22.75 19.25C22.75 17.317 21.183 15.75 19.25 15.75C17.317 15.75 15.75 17.317 15.75 19.25C15.75 21.183 17.317 22.75 19.25 22.75Z" fill="#C0C1C7"/>
<path d="M29.75 22.75C31.683 22.75 33.25 21.183 33.25 19.25C33.25 17.317 31.683 15.75 29.75 15.75C27.817 15.75 26.25 17.317 26.25 19.25C26.25 21.183 27.817 22.75 29.75 22.75Z" fill="#C0C1C7"/>
<path d="M40.25 22.75C42.183 22.75 43.75 21.183 43.75 19.25C43.75 17.317 42.183 15.75 40.25 15.75C38.317 15.75 36.75 17.317 36.75 19.25C36.75 21.183 38.317 22.75 40.25 22.75Z" fill="#C0C1C7"/>
</svg>
