<svg width="57" height="59" viewBox="0 0 57 59" fill="none" xmlns="http://www.w3.org/2000/svg">
<path d="M3.65061 10.9087C3.13146 10.3519 2.8442 9.60613 2.85069 8.83202C2.85719 8.05791 3.15692 7.31741 3.68533 6.77001C4.21374 6.22261 4.92856 5.91211 5.67582 5.90539C6.42308 5.89866 7.143 6.19624 7.68051 6.73405L53.2805 53.9724C53.7997 54.5292 54.0869 55.275 54.0804 56.0491C54.0739 56.8232 53.7742 57.5637 53.2458 58.1111C52.7174 58.6585 52.0026 58.969 51.2553 58.9758C50.508 58.9825 49.7881 58.6849 49.2506 58.1471L3.65061 10.9087Z" fill="#8C8F9A"/>
<path fill-rule="evenodd" clip-rule="evenodd" d="M0 19.9487C0 18.3827 0.600534 16.8808 1.66949 15.7734C2.73845 14.6661 4.18827 14.0439 5.7 14.0439H51.3C52.8117 14.0439 54.2615 14.6661 55.3305 15.7734C56.3995 16.8808 57 18.3827 57 19.9487V52.4251C57 53.9912 56.3995 55.4931 55.3305 56.6004C54.2615 57.7078 52.8117 58.3299 51.3 58.3299H5.7C4.18827 58.3299 2.73845 57.7078 1.66949 56.6004C0.600534 55.4931 0 53.9912 0 52.4251V19.9487ZM51.3 19.9487H5.7V52.4251H51.3V19.9487Z" fill="#8C8F9A"/>
<path fill-rule="evenodd" clip-rule="evenodd" d="M16.3879 27.3308C16.3879 26.7435 16.6131 26.1803 17.0139 25.765C17.4148 25.3498 17.9585 25.1165 18.5254 25.1165H38.4754C39.0423 25.1165 39.586 25.3498 39.9868 25.765C40.3877 26.1803 40.6129 26.7435 40.6129 27.3308C40.6129 27.918 40.3877 28.4813 39.9868 28.8965C39.586 29.3118 39.0423 29.5451 38.4754 29.5451H18.5254C17.9585 29.5451 17.4148 29.3118 17.0139 28.8965C16.6131 28.4813 16.3879 27.918 16.3879 27.3308ZM13.5379 36.188C13.5379 35.6007 13.7631 35.0375 14.1639 34.6222C14.5648 34.207 15.1085 33.9737 15.6754 33.9737H41.3254C41.8923 33.9737 42.436 34.207 42.8368 34.6222C43.2377 35.0375 43.4629 35.6007 43.4629 36.188C43.4629 36.7752 43.2377 37.3385 42.8368 37.7537C42.436 38.169 41.8923 38.4023 41.3254 38.4023H15.6754C15.1085 38.4023 14.5648 38.169 14.1639 37.7537C13.7631 37.3385 13.5379 36.7752 13.5379 36.188ZM16.3879 45.0452C16.3879 44.4579 16.6131 43.8947 17.0139 43.4794C17.4148 43.0642 17.9585 42.8309 18.5254 42.8309H38.4754C39.0423 42.8309 39.586 43.0642 39.9868 43.4794C40.3877 43.8947 40.6129 44.4579 40.6129 45.0452C40.6129 45.6324 40.3877 46.1956 39.9868 46.6109C39.586 47.0262 39.0423 47.2595 38.4754 47.2595H18.5254C17.9585 47.2595 17.4148 47.0262 17.0139 46.6109C16.6131 46.1956 16.3879 45.6324 16.3879 45.0452ZM32.5303 7.63238C31.4614 6.5254 30.0118 5.90353 28.5004 5.90353C26.9889 5.90353 25.5394 6.5254 24.4705 7.63238L13.4153 19.0877C13.1505 19.3618 12.8362 19.5792 12.4903 19.7275C12.1444 19.8757 11.7737 19.952 11.3994 19.9519C11.025 19.9517 10.6544 19.8752 10.3086 19.7267C9.96279 19.5781 9.64861 19.3605 9.38401 19.0862C9.1194 18.8119 8.90954 18.4863 8.76641 18.128C8.62327 17.7696 8.54967 17.3856 8.5498 16.9978C8.54994 16.61 8.6238 16.2261 8.76718 15.8678C8.91056 15.5096 9.12064 15.1842 9.38543 14.91L20.4406 3.45769C22.5784 1.24373 25.4775 0 28.5004 0C31.5233 0 34.4224 1.24373 36.5602 3.45769L47.6182 14.91C48.1526 15.464 48.4526 16.2152 48.4524 16.9984C48.4521 17.7816 48.1515 18.5326 47.6168 19.0862C47.082 19.6398 46.3568 19.9507 45.6008 19.9504C44.8448 19.9501 44.1198 19.6387 43.5854 19.0847L32.5303 7.63238Z" fill="#8C8F9A"/>
</svg>
