<svg width="17" height="14" viewBox="0 0 17 14" fill="none" xmlns="http://www.w3.org/2000/svg">
<path d="M10.2246 12.7835C10.1632 12.8402 10.1139 12.9086 10.0798 12.9845C10.0456 13.0604 10.0272 13.1424 10.0257 13.2255C10.0243 13.3086 10.0397 13.3912 10.0711 13.4683C10.1026 13.5454 10.1494 13.6154 10.2087 13.6742C10.2681 13.7329 10.3388 13.7793 10.4166 13.8104C10.4944 13.8415 10.5778 13.8568 10.6617 13.8554C10.7456 13.8539 10.8284 13.8357 10.905 13.8019C10.9817 13.768 11.0507 13.7193 11.1079 13.6584L16.3162 8.4998C16.4333 8.38373 16.499 8.22639 16.499 8.06234C16.499 7.8983 16.4333 7.74096 16.3162 7.62489L11.1079 2.46624C11.0507 2.40542 10.9817 2.35664 10.905 2.32281C10.8284 2.28897 10.7456 2.27078 10.6617 2.26931C10.5778 2.26785 10.4944 2.28314 10.4166 2.31427C10.3388 2.3454 10.2681 2.39175 10.2087 2.45053C10.1494 2.50931 10.1026 2.57933 10.0711 2.65641C10.0397 2.73349 10.0243 2.81606 10.0257 2.89917C10.0272 2.98229 10.0456 3.06427 10.0798 3.1402C10.1139 3.21613 10.1632 3.28448 10.2246 3.34115L14.3662 7.4433L4.83291 7.4433C4.1149 7.4433 3.42628 7.16091 2.91842 6.6582C2.41055 6.15549 2.12502 5.47362 2.12457 4.76246V1.04658C2.12457 0.882403 2.05873 0.724947 1.94152 0.608855C1.82431 0.492763 1.66533 0.427544 1.49957 0.427544C1.33381 0.427544 1.17484 0.492763 1.05763 0.608855C0.940421 0.724947 0.874574 0.882403 0.874574 1.04658V4.76246C0.875016 5.80197 1.29225 6.79876 2.03453 7.53366C2.77682 8.26855 3.78338 8.68138 4.83291 8.68138L14.3662 8.68138L10.2246 12.7835Z" fill="#030712"/>
</svg>
